<svg width="24" height="24" viewBox="0 0 24 24" fill="none" xmlns="http://www.w3.org/2000/svg">
<path d="M15.2438 17.4863C10.6397 17.3698 10.6405 10.9759 15.2513 10.8788C16.334 10.8789 19.9353 10.8787 20.9625 10.8788V8.65881C20.9617 8.14516 20.7669 7.65077 20.4172 7.2746C20.0674 6.89842 19.5885 6.66822 19.0763 6.63006C19.0159 6.62645 3.38325 6.5905 3.22879 6.64881C2.74798 6.72195 2.30925 6.96488 1.99212 7.33361C1.67498 7.70233 1.50039 8.17246 1.5 8.65881V19.8976C1.50035 20.4378 1.71488 20.956 2.09657 21.3383C2.47825 21.7207 2.99597 21.9362 3.53625 21.9376H18.9225C19.4634 21.937 19.9819 21.7219 20.3644 21.3394C20.7468 20.957 20.9619 20.4384 20.9625 19.8976V17.4863C20.5859 17.4837 15.2438 17.4863 15.2438 17.4863ZM8.4375 13.9051C10.6891 13.9403 10.9897 17.1502 8.81245 17.6176L8.8125 18.7801C8.81068 18.8783 8.77038 18.9719 8.70024 19.0408C8.63011 19.1096 8.53576 19.1482 8.43749 19.1482C8.33921 19.1482 8.24486 19.1096 8.17474 19.0408C8.10461 18.9719 8.06431 18.8783 8.0625 18.78V17.6176C7.639 17.5311 7.25838 17.301 6.98505 16.9661C6.71171 16.6313 6.56244 16.2123 6.5625 15.7801C6.5625 15.6806 6.60201 15.5852 6.67233 15.5149C6.74266 15.4446 6.83804 15.4051 6.9375 15.4051C7.03696 15.4051 7.13234 15.4446 7.20267 15.5149C7.27299 15.5852 7.3125 15.6806 7.3125 15.7801C7.3125 16.0026 7.37848 16.2201 7.5021 16.4051C7.62571 16.5901 7.80141 16.7343 8.00698 16.8194C8.21255 16.9046 8.43875 16.9268 8.65698 16.8834C8.87521 16.84 9.07566 16.7329 9.233 16.5756C9.39033 16.4182 9.49748 16.2178 9.54088 15.9995C9.58429 15.7813 9.56201 15.5551 9.47686 15.3495C9.39172 15.144 9.24752 14.9683 9.06252 14.8447C8.87751 14.721 8.66 14.6551 8.4375 14.6551C7.97282 14.655 7.52471 14.4824 7.18003 14.1708C6.83535 13.8592 6.61865 13.4306 6.57195 12.9683C6.52525 12.506 6.65188 12.0428 6.92727 11.6685C7.20266 11.2942 7.60722 11.0355 8.0625 10.9426V9.77631C8.06403 9.67786 8.10421 9.58396 8.17437 9.51488C8.24453 9.4458 8.33905 9.40708 8.43751 9.40708C8.53597 9.40708 8.63048 9.44581 8.70064 9.51489C8.7708 9.58397 8.81098 9.67788 8.8125 9.77633V10.9426C9.236 11.029 9.61662 11.2592 9.88996 11.594C10.1633 11.9288 10.3126 12.3478 10.3125 12.7801C10.3125 12.8795 10.273 12.9749 10.2027 13.0452C10.1323 13.1155 10.037 13.1551 9.9375 13.1551C9.83804 13.1551 9.74266 13.1155 9.67233 13.0452C9.60201 12.9749 9.5625 12.8795 9.5625 12.7801C9.5625 12.5576 9.49652 12.34 9.3729 12.155C9.24929 11.97 9.07359 11.8258 8.86802 11.7407C8.66245 11.6555 8.43625 11.6333 8.21802 11.6767C7.99979 11.7201 7.79934 11.8272 7.642 11.9846C7.48467 12.1419 7.37752 12.3424 7.33412 12.5606C7.29071 12.7788 7.31299 13.005 7.39814 13.2106C7.48328 13.4161 7.62748 13.5918 7.81248 13.7155C7.99749 13.8391 8.215 13.9051 8.4375 13.9051ZM21.7125 11.6813C21.5193 11.6023 15.7616 11.6264 15.2512 11.6288C12.6359 11.575 11.4793 14.8323 13.7025 16.3051C14.1631 16.5963 14.6989 16.7462 15.2438 16.7363H21.375C21.6729 16.7349 21.9583 16.616 22.169 16.4053C22.3797 16.1946 22.4986 15.9093 22.5 15.6113V12.7538C22.4994 12.5146 22.4228 12.2819 22.2812 12.0891C22.1397 11.8963 21.9405 11.7535 21.7125 11.6813ZM13.785 14.1826C13.7884 13.8625 13.9179 13.5568 14.1454 13.3317C14.3729 13.1066 14.68 12.9803 15 12.9803C15.3201 12.9803 15.6272 13.1066 15.8547 13.3317C16.0821 13.5568 16.2116 13.8626 16.215 14.1826C16.2116 14.5026 16.0821 14.8084 15.8546 15.0335C15.6271 15.2586 15.32 15.3848 15 15.3848C14.6799 15.3848 14.3728 15.2586 14.1453 15.0335C13.9179 14.8083 13.7884 14.5026 13.785 14.1826ZM6.795 5.87256L9.94875 2.91381C10.0185 2.84874 10.1103 2.81256 10.2056 2.81256C10.301 2.81256 10.3928 2.84874 10.4625 2.91381L13.6425 5.87256H6.795ZM11.97 3.29256C12.0861 3.18238 12.8588 2.45725 12.9562 2.36631C13.1651 2.17199 13.4397 2.06396 13.725 2.06396C14.0103 2.06396 14.2849 2.17199 14.4938 2.36631L18.2625 5.87256C17.8099 5.8712 14.7413 5.87256 14.7413 5.87256C14.3458 5.50499 12.3191 3.61775 11.97 3.29256ZM15 14.755C14.8496 14.7528 14.7061 14.6916 14.6006 14.5844C14.495 14.4773 14.4358 14.333 14.4358 14.1826C14.4358 14.0322 14.495 13.8878 14.6005 13.7807C14.7061 13.6735 14.8496 13.6123 15 13.6101C15.1503 13.6124 15.2937 13.6737 15.3992 13.7808C15.5047 13.8879 15.5639 14.0322 15.5639 14.1825C15.5639 14.3329 15.5047 14.4772 15.3992 14.5843C15.2937 14.6914 15.1503 14.7527 15 14.755L15 14.755Z" fill="url(#paint0_linear_9_1519)"/>
<path d="M15.2438 17.4863C10.6397 17.3698 10.6405 10.9759 15.2513 10.8788C16.334 10.8789 19.9353 10.8787 20.9625 10.8788V8.65881C20.9617 8.14516 20.7669 7.65077 20.4172 7.2746C20.0674 6.89842 19.5885 6.66822 19.0763 6.63006C19.0159 6.62645 3.38325 6.5905 3.22879 6.64881C2.74798 6.72195 2.30925 6.96488 1.99212 7.33361C1.67498 7.70233 1.50039 8.17246 1.5 8.65881V19.8976C1.50035 20.4378 1.71488 20.956 2.09657 21.3383C2.47825 21.7207 2.99597 21.9362 3.53625 21.9376H18.9225C19.4634 21.937 19.9819 21.7219 20.3644 21.3394C20.7468 20.957 20.9619 20.4384 20.9625 19.8976V17.4863C20.5859 17.4837 15.2438 17.4863 15.2438 17.4863ZM8.4375 13.9051C10.6891 13.9403 10.9897 17.1502 8.81245 17.6176L8.8125 18.7801C8.81068 18.8783 8.77038 18.9719 8.70024 19.0408C8.63011 19.1096 8.53576 19.1482 8.43749 19.1482C8.33921 19.1482 8.24486 19.1096 8.17474 19.0408C8.10461 18.9719 8.06431 18.8783 8.0625 18.78V17.6176C7.639 17.5311 7.25838 17.301 6.98505 16.9661C6.71171 16.6313 6.56244 16.2123 6.5625 15.7801C6.5625 15.6806 6.60201 15.5852 6.67233 15.5149C6.74266 15.4446 6.83804 15.4051 6.9375 15.4051C7.03696 15.4051 7.13234 15.4446 7.20267 15.5149C7.27299 15.5852 7.3125 15.6806 7.3125 15.7801C7.3125 16.0026 7.37848 16.2201 7.5021 16.4051C7.62571 16.5901 7.80141 16.7343 8.00698 16.8194C8.21255 16.9046 8.43875 16.9268 8.65698 16.8834C8.87521 16.84 9.07566 16.7329 9.233 16.5756C9.39033 16.4182 9.49748 16.2178 9.54088 15.9995C9.58429 15.7813 9.56201 15.5551 9.47686 15.3495C9.39172 15.144 9.24752 14.9683 9.06252 14.8447C8.87751 14.721 8.66 14.6551 8.4375 14.6551C7.97282 14.655 7.52471 14.4824 7.18003 14.1708C6.83535 13.8592 6.61865 13.4306 6.57195 12.9683C6.52525 12.506 6.65188 12.0428 6.92727 11.6685C7.20266 11.2942 7.60722 11.0355 8.0625 10.9426V9.77631C8.06403 9.67786 8.10421 9.58396 8.17437 9.51488C8.24453 9.4458 8.33905 9.40708 8.43751 9.40708C8.53597 9.40708 8.63048 9.44581 8.70064 9.51489C8.7708 9.58397 8.81098 9.67788 8.8125 9.77633V10.9426C9.236 11.029 9.61662 11.2592 9.88996 11.594C10.1633 11.9288 10.3126 12.3478 10.3125 12.7801C10.3125 12.8795 10.273 12.9749 10.2027 13.0452C10.1323 13.1155 10.037 13.1551 9.9375 13.1551C9.83804 13.1551 9.74266 13.1155 9.67233 13.0452C9.60201 12.9749 9.5625 12.8795 9.5625 12.7801C9.5625 12.5576 9.49652 12.34 9.3729 12.155C9.24929 11.97 9.07359 11.8258 8.86802 11.7407C8.66245 11.6555 8.43625 11.6333 8.21802 11.6767C7.99979 11.7201 7.79934 11.8272 7.642 11.9846C7.48467 12.1419 7.37752 12.3424 7.33412 12.5606C7.29071 12.7788 7.31299 13.005 7.39814 13.2106C7.48328 13.4161 7.62748 13.5918 7.81248 13.7155C7.99749 13.8391 8.215 13.9051 8.4375 13.9051ZM21.7125 11.6813C21.5193 11.6023 15.7616 11.6264 15.2512 11.6288C12.6359 11.575 11.4793 14.8323 13.7025 16.3051C14.1631 16.5963 14.6989 16.7462 15.2438 16.7363H21.375C21.6729 16.7349 21.9583 16.616 22.169 16.4053C22.3797 16.1946 22.4986 15.9093 22.5 15.6113V12.7538C22.4994 12.5146 22.4228 12.2819 22.2812 12.0891C22.1397 11.8963 21.9405 11.7535 21.7125 11.6813ZM13.785 14.1826C13.7884 13.8625 13.9179 13.5568 14.1454 13.3317C14.3729 13.1066 14.68 12.9803 15 12.9803C15.3201 12.9803 15.6272 13.1066 15.8547 13.3317C16.0821 13.5568 16.2116 13.8626 16.215 14.1826C16.2116 14.5026 16.0821 14.8084 15.8546 15.0335C15.6271 15.2586 15.32 15.3848 15 15.3848C14.6799 15.3848 14.3728 15.2586 14.1453 15.0335C13.9179 14.8083 13.7884 14.5026 13.785 14.1826ZM6.795 5.87256L9.94875 2.91381C10.0185 2.84874 10.1103 2.81256 10.2056 2.81256C10.301 2.81256 10.3928 2.84874 10.4625 2.91381L13.6425 5.87256H6.795ZM11.97 3.29256C12.0861 3.18238 12.8588 2.45725 12.9562 2.36631C13.1651 2.17199 13.4397 2.06396 13.725 2.06396C14.0103 2.06396 14.2849 2.17199 14.4938 2.36631L18.2625 5.87256C17.8099 5.8712 14.7413 5.87256 14.7413 5.87256C14.3458 5.50499 12.3191 3.61775 11.97 3.29256ZM15 14.755C14.8496 14.7528 14.7061 14.6916 14.6006 14.5844C14.495 14.4773 14.4358 14.333 14.4358 14.1826C14.4358 14.0322 14.495 13.8878 14.6005 13.7807C14.7061 13.6735 14.8496 13.6123 15 13.6101C15.1503 13.6124 15.2937 13.6737 15.3992 13.7808C15.5047 13.8879 15.5639 14.0322 15.5639 14.1825C15.5639 14.3329 15.5047 14.4772 15.3992 14.5843C15.2937 14.6914 15.1503 14.7527 15 14.755L15 14.755Z" fill="url(#paint1_linear_9_1519)"/>
<defs>
<linearGradient id="paint0_linear_9_1519" x1="1.5" y1="12.0008" x2="22.5" y2="12.0008" gradientUnits="userSpaceOnUse">
<stop stop-color="#FFDE00"/>
<stop offset="1" stop-color="#FD5900"/>
</linearGradient>
<linearGradient id="paint1_linear_9_1519" x1="20.4" y1="2.06397" x2="1.58047" y2="4.9693" gradientUnits="userSpaceOnUse">
<stop stop-color="#12DBB9"/>
<stop offset="1" stop-color="#0580BF"/>
</linearGradient>
</defs>
</svg>
